<?xml version="1.0" encoding="UTF-8"?>
<svg width="1024px" height="1024px" viewBox="0 0 1024 1024" version="1.1" xmlns="http://www.w3.org/2000/svg" xmlns:xlink="http://www.w3.org/1999/xlink">
    <title>Icon2</title>
    <defs>
        <linearGradient x1="50%" y1="0%" x2="50%" y2="100%" id="linearGradient-1">
            <stop stop-color="#FFFFFF" offset="0%"></stop>
            <stop stop-color="#FFFFFF" offset="100%"></stop>
        </linearGradient>
        <linearGradient x1="50%" y1="0%" x2="50%" y2="100%" id="linearGradient-2">
            <stop stop-color="#7E7E7E" offset="0%"></stop>
            <stop stop-color="#565656" offset="100%"></stop>
        </linearGradient>
        <linearGradient x1="87.2835077%" y1="10.42212%" x2="36.7908713%" y2="80.4173335%" id="linearGradient-3">
            <stop stop-color="#828282" offset="0%"></stop>
            <stop stop-color="#262626" offset="100%"></stop>
        </linearGradient>
    </defs>
    <g id="Icon2" stroke="none" stroke-width="1" fill="none" fill-rule="evenodd">
        <rect id="Rectangle" fill="url(#linearGradient-1)" x="-9" y="-9" width="1045" height="1044"></rect>
        <path d="M86.324,646 L86.3246753,914.350649 C86.3246753,927.232512 96.7674882,937.675325 109.649351,937.675325 L383.714,937.675 L383.714,961 L109.649351,961 C83.8856257,961 63,940.114374 63,914.350649 L63,646 L86.324,646 Z M961,646 L961,914.350649 C961,940.114374 940.114374,961 914.350649,961 L646.116,961 L646.116,937.675 L914.350649,937.675325 C927.232512,937.675325 937.675325,927.232512 937.675325,914.350649 L937.675,646 L961,646 Z M383.714,63 L383.714,86.324 L109.649351,86.3246753 C96.7674882,86.3246753 86.3246753,96.7674882 86.3246753,109.649351 L86.324,384 L63,384 L63,109.649351 C63,83.8856257 83.8856257,63 109.649351,63 L383.714,63 Z M914.350649,63 C940.114374,63 961,83.8856257 961,109.649351 L961,384 L937.675,384 L937.675325,109.649351 C937.675325,96.7674882 927.232512,86.3246753 914.350649,86.3246753 L646.116,86.324 L646.116,63 L914.350649,63 Z" id="Combined-Shape" fill="url(#linearGradient-2)" fill-rule="nonzero"></path>
        <g id="W" transform="translate(126, 106)" fill="url(#linearGradient-3)" fill-rule="nonzero">
            <path d="M425.649525,128.322016 L461.367944,332.876113 C469.834532,384.069364 475.456875,419.021022 478.234974,436.956175 C481.013074,455.021121 484.055754,477.316513 487.363015,503.913388 C490.670276,530.734772 492.853068,553.504753 493.911391,572.092348 L507.008145,575.045837 C509.389373,511.42723 517.459089,429.50263 531.217295,326.956061 L565.348228,57.8846465 L711,0 L619.322727,756 L400.646633,669.094168 L362.943858,457.435181 C355.006432,415.989596 348.854926,377.39486 344.489342,341.271578 C340.123757,305.650351 337.940965,281.425794 337.940965,268.221368 L327.22544,270.419637 C327.22544,281.438393 324.778066,305.065467 319.88332,340.875745 C314.988574,376.119206 308.572488,412.895355 300.635062,450.854356 L262.932287,614.363998 L46.2405494,528.246786 L0,270.419637 L99.8181768,242.894702 L133.94911,360.626355 C147.707315,414.184216 155.777032,460.20597 158.15826,496.375638 L171.255013,499.329127 C172.313337,488.770642 174.496129,476.11043 177.80339,461.220481 C181.110651,446.109985 184.219476,432.829688 187.129866,421.43779 C190.040255,409.902947 195.596454,388.092434 203.798461,355.293028 L239.516879,198.392404 L425.649525,128.322016 Z" id="Path"></path>
        </g>
    </g>
</svg>